<svg clip-rule="evenodd" fill-rule="evenodd" image-rendering="optimizeQuality" shape-rendering="geometricPrecision" text-rendering="geometricPrecision" viewBox="0 0 512 512" xmlns="http://www.w3.org/2000/svg"><path d="m474.919 0h-436.327c-20.872 0-38.592 16.504-38.592 36.841v438.299c0 20.356 11.629 36.86 32.492 36.86h436.327c20.899 0 43.181-16.504 43.181-36.86v-438.299c0-20.337-16.191-36.841-37.081-36.841zm-279.876 195.043h68.928v35.136h.755c10.505-18.945 41.541-38.177 79.921-38.177 73.655 0 94.214 39.108 94.214 111.538v135.321h-73.148v-121.978c0-32.427-12.947-60.883-43.227-60.883-36.768 0-54.295 24.889-54.295 65.758v117.103h-73.148zm-121.904 243.818h73.148v-243.818h-73.148zm82.289-329.148c0 25.258-20.457 45.715-45.715 45.715s-45.715-20.457-45.715-45.715 20.457-45.715 45.715-45.715 45.715 20.457 45.715 45.715z" fill="#fff"/></svg>